  0
SECTION
  2
HEADER
  9
$ACADVER
  1
AC1018
  9
$ACADMAINTVER
 70
     0
  9
$DWGCODEPAGE
  3
ANSI_1252
  9
$INSBASE
 10
0.0
 20
0.0
 30
0.0
  9
$EXTMIN
 10
1.000000000000000E+20
 20
1.000000000000000E+20
 30
1.000000000000000E+20
  9
$EXTMAX
 10
-1.000000000000000E+20
 20
-1.000000000000000E+20
 30
-1.000000000000000E+20
  9
$LIMMIN
 10
0.0
 20
0.0
  9
$LIMMAX
 10
12.0
 20
9.0
  9
$ORTHOMODE
 70
     0
  9
$REGENMODE
 70
     1
  9
$FILLMODE
 70
     1
  9
$QTEXTMODE
 70
     0
  9
$MIRRTEXT
 70
     1
  9
$LTSCALE
 40
1.0
  9
$ATTMODE
 70
     1
  9
$TEXTSIZE
 40
0.2
  9
$TRACEWID
 40
0.05
  9
$TEXTSTYLE
  7
Standard
  9
$CLAYER
  8
0
  9
$CELTYPE
  6
ByLayer
  9
$CECOLOR
 62
   256
  9
$CELTSCALE
 40
1.0
  9
$DISPSILH
 70
     0
  9
$DIMSCALE
 40
1.0
  9
$DIMASZ
 40
0.18
  9
$DIMEXO
 40
0.0625
  9
$DIMDLI
 40
0.38
  9
$DIMRND
 40
0.0
  9
$DIMDLE
 40
0.0
  9
$DIMEXE
 40
0.18
  9
$DIMTP
 40
0.0
  9
$DIMTM
 40
0.0
  9
$DIMTXT
 40
0.18
  9
$DIMCEN
 40
0.09
  9
$DIMTSZ
 40
0.0
  9
$DIMTOL
 70
     0
  9
$DIMLIM
 70
     0
  9
$DIMTIH
 70
     1
  9
$DIMTOH
 70
     1
  9
$DIMSE1
 70
     0
  9
$DIMSE2
 70
     0
  9
$DIMTAD
 70
     0
  9
$DIMZIN
 70
     0
  9
$DIMBLK
  1

  9
$DIMASO
 70
     1
  9
$DIMSHO
 70
     1
  9
$DIMPOST
  1

  9
$DIMAPOST
  1

  9
$DIMALT
 70
     0
  9
$DIMALTD
 70
     2
  9
$DIMALTF
 40
25.4
  9
$DIMLFAC
 40
1.0
  9
$DIMTOFL
 70
     0
  9
$DIMTVP
 40
0.0
  9
$DIMTIX
 70
     0
  9
$DIMSOXD
 70
     0
  9
$DIMSAH
 70
     0
  9
$DIMBLK1
  1

  9
$DIMBLK2
  1

  9
$DIMSTYLE
  2
Standard
  9
$DIMCLRD
 70
     0
  9
$DIMCLRE
 70
     0
  9
$DIMCLRT
 70
     0
  9
$DIMTFAC
 40
1.0
  9
$DIMGAP
 40
0.09
  9
$DIMJUST
 70
     0
  9
$DIMSD1
 70
     0
  9
$DIMSD2
 70
     0
  9
$DIMTOLJ
 70
     1
  9
$DIMTZIN
 70
     0
  9
$DIMALTZ
 70
     0
  9
$DIMALTTZ
 70
     0
  9
$DIMUPT
 70
     0
  9
$DIMDEC
 70
     4
  9
$DIMTDEC
 70
     4
  9
$DIMALTU
 70
     2
  9
$DIMALTTD
 70
     2
  9
$DIMTXSTY
  7
Standard
  9
$DIMAUNIT
 70
     0
  9
$DIMADEC
 70
     0
  9
$DIMALTRND
 40
0.0
  9
$DIMAZIN
 70
     0
  9
$DIMDSEP
 70
    46
  9
$DIMATFIT
 70
     3
  9
$DIMFRAC
 70
     0
  9
$DIMLDRBLK
  1

  9
$DIMLUNIT
 70
     2
  9
$DIMLWD
 70
    -2
  9
$DIMLWE
 70
    -2
  9
$DIMTMOVE
 70
     0
  9
$LUNITS
 70
     2
  9
$LUPREC
 70
     4
  9
$SKETCHINC
 40
0.1
  9
$FILLETRAD
 40
0.5
  9
$AUNITS
 70
     0
  9
$AUPREC
 70
     0
  9
$MENU
  1
.
  9
$ELEVATION
 40
0.0
  9
$PELEVATION
 40
0.0
  9
$THICKNESS
 40
0.0
  9
$LIMCHECK
 70
     0
  9
$CHAMFERA
 40
0.5
  9
$CHAMFERB
 40
0.5
  9
$CHAMFERC
 40
1.0
  9
$CHAMFERD
 40
0.0
  9
$SKPOLY
 70
     0
  9
$TDCREATE
 40
2459528.900782859
  9
$TDUCREATE
 40
2459528.859116192
  9
$TDUPDATE
 40
2459528.900782871
  9
$TDUUPDATE
 40
2459528.859116204
  9
$TDINDWG
 40
0.0000000116
  9
$TDUSRTIMER
 40
0.0000000116
  9
$USRTIMER
 70
     1
  9
$ANGBASE
 50
0.0
  9
$ANGDIR
 70
     0
  9
$PDMODE
 70
     0
  9
$PDSIZE
 40
0.0
  9
$PLINEWID
 40
0.0
  9
$SPLFRAME
 70
     0
  9
$SPLINETYPE
 70
     6
  9
$SPLINESEGS
 70
     8
  9
$HANDSEED
  5
3F
  9
$SURFTAB1
 70
     6
  9
$SURFTAB2
 70
     6
  9
$SURFTYPE
 70
     6
  9
$SURFU
 70
     6
  9
$SURFV
 70
     6
  9
$UCSBASE
  2

  9
$UCSNAME
  2

  9
$UCSORG
 10
0.0
 20
0.0
 30
0.0
  9
$UCSXDIR
 10
1.0
 20
0.0
 30
0.0
  9
$UCSYDIR
 10
0.0
 20
1.0
 30
0.0
  9
$UCSORTHOREF
  2

  9
$UCSORTHOVIEW
 70
     0
  9
$UCSORGTOP
 10
0.0
 20
0.0
 30
0.0
  9
$UCSORGBOTTOM
 10
0.0
 20
0.0
 30
0.0
  9
$UCSORGLEFT
 10
0.0
 20
0.0
 30
0.0
  9
$UCSORGRIGHT
 10
0.0
 20
0.0
 30
0.0
  9
$UCSORGFRONT
 10
0.0
 20
0.0
 30
0.0
  9
$UCSORGBACK
 10
0.0
 20
0.0
 30
0.0
  9
$PUCSBASE
  2

  9
$PUCSNAME
  2

  9
$PUCSORG
 10
0.0
 20
0.0
 30
0.0
  9
$PUCSXDIR
 10
1.0
 20
0.0
 30
0.0
  9
$PUCSYDIR
 10
0.0
 20
1.0
 30
0.0
  9
$PUCSORTHOREF
  2

  9
$PUCSORTHOVIEW
 70
     0
  9
$PUCSORGTOP
 10
0.0
 20
0.0
 30
0.0
  9
$PUCSORGBOTTOM
 10
0.0
 20
0.0
 30
0.0
  9
$PUCSORGLEFT
 10
0.0
 20
0.0
 30
0.0
  9
$PUCSORGRIGHT
 10
0.0
 20
0.0
 30
0.0
  9
$PUCSORGFRONT
 10
0.0
 20
0.0
 30
0.0
  9
$PUCSORGBACK
 10
0.0
 20
0.0
 30
0.0
  9
$USERI1
 70
     0
  9
$USERI2
 70
     0
  9
$USERI3
 70
     0
  9
$USERI4
 70
     0
  9
$USERI5
 70
     0
  9
$USERR1
 40
0.0
  9
$USERR2
 40
0.0
  9
$USERR3
 40
0.0
  9
$USERR4
 40
0.0
  9
$USERR5
 40
0.0
  9
$WORLDVIEW
 70
     1
  9
$SHADEDGE
 70
     3
  9
$SHADEDIF
 70
    70
  9
$TILEMODE
 70
     1
  9
$MAXACTVP
 70
    64
  9
$PINSBASE
 10
0.0
 20
0.0
 30
0.0
  9
$PLIMCHECK
 70
     0
  9
$PEXTMIN
 10
1.000000000000000E+20
 20
1.000000000000000E+20
 30
1.000000000000000E+20
  9
$PEXTMAX
 10
-1.000000000000000E+20
 20
-1.000000000000000E+20
 30
-1.000000000000000E+20
  9
$PLIMMIN
 10
0.0
 20
0.0
  9
$PLIMMAX
 10
12.0
 20
9.0
  9
$UNITMODE
 70
     0
  9
$VISRETAIN
 70
     1
  9
$PLINEGEN
 70
     0
  9
$PSLTSCALE
 70
     1
  9
$TREEDEPTH
 70
  3020
  9
$CMLSTYLE
  2
Standard
  9
$CMLJUST
 70
     0
  9
$CMLSCALE
 40
1.0
  9
$PROXYGRAPHICS
 70
     1
  9
$MEASUREMENT
 70
     0
  9
$CELWEIGHT
370
    -1
  9
$ENDCAPS
280
     0
  9
$JOINSTYLE
280
     0
  9
$LWDISPLAY
290
     1
  9
$INSUNITS
 70
     1
  9
$HYPERLINKBASE
  1

  9
$STYLESHEET
  1

  9
$XEDIT
290
     1
  9
$CEPSNTYPE
380
     0
  9
$PSTYLEMODE
290
     1
  9
$FINGERPRINTGUID
  2
{CB0022D9-3120-4B96-8718-47BE2A8DD437}
  9
$VERSIONGUID
  2
{FAEB1C32-E019-11D5-929B-00C0DF256EC4}
  9
$EXTNAMES
290
     1
  9
$PSVPSCALE
 40
0.0
  9
$OLESTARTUP
290
     0
  9
$SORTENTS
280
   127
  9
$INDEXCTL
280
     0
  9
$HIDETEXT
280
     1
  9
$XCLIPFRAME
290
     0
  9
$HALOGAP
280
     0
  9
$OBSCOLOR
 70
   257
  9
$OBSLTYPE
280
     0
  9
$INTERSECTIONDISPLAY
280
     0
  9
$INTERSECTIONCOLOR
 70
   257
  9
$DIMASSOC
280
     2
  9
$PROJECTNAME
  1

  0
ENDSEC
  0
SECTION
  2
CLASSES
  0
CLASS
  1
ACDBDICTIONARYWDFLT
  2
AcDbDictionaryWithDefault
  3
ObjectDBX Classes
 90
        0
 91
        3
280
     0
281
     0
  0
CLASS
  1
VISUALSTYLE
  2
AcDbVisualStyle
  3
ObjectDBX Classes
 90
     4095
 91
        3
280
     0
281
     0
  0
ENDSEC
  0
SECTION
  2
TABLES
  0
TABLE
  2
VPORT
  5
8
330
0
100
AcDbSymbolTable
 70
     1
  0
VPORT
  5
29
330
8
100
AcDbSymbolTableRecord
100
AcDbViewportTableRecord
  2
*Active
 70
     0
 10
0.0
 20
0.0
 11
1.0
 21
1.0
 12
0.0
 22
0.0
 13
0.0
 23
0.0
 14
0.5
 24
0.5
 15
0.5
 25
0.5
 16
0.0
 26
0.0
 36
1.0
 17
0.1006425020777743
 27
-0.0858930911740569
 37
0.0
 40
0.1458711234833985
 41
1.151629660157315
 42
50.0
 43
0.0
 44
0.0
 50
0.0
 51
0.0
 71
     0
 72
   100
 73
     1
 74
     3
 75
     0
 76
     0
 77
     0
 78
     0
281
     0
 65
     1
110
0.0
120
0.0
130
0.0
111
1.0
121
0.0
131
0.0
112
0.0
122
1.0
132
0.0
 79
     0
146
0.0
  0
ENDTAB
  0
TABLE
  2
LTYPE
  5
5
330
0
100
AcDbSymbolTable
 70
     1
  0
LTYPE
  5
14
330
5
100
AcDbSymbolTableRecord
100
AcDbLinetypeTableRecord
  2
ByBlock
 70
     0
  3

 72
    65
 73
     0
 40
0.0
  0
LTYPE
  5
15
330
5
100
AcDbSymbolTableRecord
100
AcDbLinetypeTableRecord
  2
ByLayer
 70
     0
  3

 72
    65
 73
     0
 40
0.0
  0
LTYPE
  5
16
330
5
100
AcDbSymbolTableRecord
100
AcDbLinetypeTableRecord
  2
Continuous
 70
     0
  3
Solid line
 72
    65
 73
     0
 40
0.0
  0
ENDTAB
  0
TABLE
  2
LAYER
  5
2
330
0
100
AcDbSymbolTable
 70
     2
  0
LAYER
  5
10
330
2
100
AcDbSymbolTableRecord
100
AcDbLayerTableRecord
  2
0
 70
     0
 62
     7
  6
Continuous
370
    -3
390
F
  0
LAYER
  5
3B
330
2
100
AcDbSymbolTableRecord
100
AcDbLayerTableRecord
  2
Layer 1
 70
     0
 62
     7
  6
Continuous
370
    -3
390
F
  0
ENDTAB
  0
TABLE
  2
STYLE
  5
3
330
0
100
AcDbSymbolTable
 70
     1
  0
STYLE
  5
11
330
3
100
AcDbSymbolTableRecord
100
AcDbTextStyleTableRecord
  2
Standard
 70
     0
 40
0.0
 41
1.0
 50
0.0
 71
     0
 42
0.2
  3
txt
  4

  0
ENDTAB
  0
TABLE
  2
VIEW
  5
6
330
0
100
AcDbSymbolTable
 70
     0
  0
ENDTAB
  0
TABLE
  2
UCS
  5
7
330
0
100
AcDbSymbolTable
 70
     0
  0
ENDTAB
  0
TABLE
  2
APPID
  5
9
330
0
100
AcDbSymbolTable
 70
     1
  0
APPID
  5
12
330
9
100
AcDbSymbolTableRecord
100
AcDbRegAppTableRecord
  2
ACAD
 70
     0
  0
ENDTAB
  0
TABLE
  2
DIMSTYLE
  5
A
330
0
100
AcDbSymbolTable
 70
     1
100
AcDbDimStyleTable
  0
DIMSTYLE
105
27
330
A
100
AcDbSymbolTableRecord
100
AcDbDimStyleTableRecord
  2
Standard
 70
     0
340
11
  0
ENDTAB
  0
TABLE
  2
BLOCK_RECORD
  5
1
330
0
100
AcDbSymbolTable
 70
     1
  0
BLOCK_RECORD
  5
1F
330
1
100
AcDbSymbolTableRecord
100
AcDbBlockTableRecord
  2
*Model_Space
340
22
  0
BLOCK_RECORD
  5
1B
330
1
100
AcDbSymbolTableRecord
100
AcDbBlockTableRecord
  2
*Paper_Space
340
1E
  0
BLOCK_RECORD
  5
23
330
1
100
AcDbSymbolTableRecord
100
AcDbBlockTableRecord
  2
*Paper_Space0
340
26
  0
ENDTAB
  0
ENDSEC
  0
SECTION
  2
BLOCKS
  0
BLOCK
  5
20
330
1F
100
AcDbEntity
  8
0
100
AcDbBlockBegin
  2
*Model_Space
 70
     0
 71
     0
 10
0.0
 20
0.0
 30
0.0
  3
*Model_Space
  1

  0
ENDBLK
  5
21
330
1F
100
AcDbEntity
  8
0
100
AcDbBlockEnd
  0
BLOCK
  5
1C
330
1B
100
AcDbEntity
 67
     1
  8
0
100
AcDbBlockBegin
  2
*Paper_Space
 70
     0
 71
     0
 10
0.0
 20
0.0
 30
0.0
  3
*Paper_Space
  1

  0
ENDBLK
  5
1D
330
1B
100
AcDbEntity
 67
     1
  8
0
100
AcDbBlockEnd
  0
BLOCK
  5
24
330
23
100
AcDbEntity
  8
0
100
AcDbBlockBegin
  2
*Paper_Space0
 70
     0
 71
     0
 10
0.0
 20
0.0
 30
0.0
  3
*Paper_Space0
  1

  0
ENDBLK
  5
25
330
23
100
AcDbEntity
  8
0
100
AcDbBlockEnd
  0
ENDSEC
  0
SECTION
  2
ENTITIES
  0
SPLINE
  5
3C
330
1F
100
AcDbEntity
  8
Layer 1
370
     0
100
AcDbSpline
210
0.0
220
0.0
230
1.0
 70
    11
 71
     3
 72
   299
 73
   295
 74
     0
 42
0.0000000001
 43
0.0000000001
 40
0.0
 40
0.0
 40
0.0
 40
0.0
 40
1.0
 40
1.0
 40
1.0
 40
2.0
 40
2.0
 40
2.0
 40
3.0
 40
3.0
 40
3.0
 40
4.0
 40
4.0
 40
4.0
 40
5.0
 40
5.0
 40
5.0
 40
6.0
 40
6.0
 40
6.0
 40
7.0
 40
7.0
 40
7.0
 40
8.0
 40
8.0
 40
8.0
 40
9.0
 40
9.0
 40
9.0
 40
10.0
 40
10.0
 40
10.0
 40
11.0
 40
11.0
 40
11.0
 40
12.0
 40
12.0
 40
12.0
 40
13.0
 40
13.0
 40
13.0
 40
14.0
 40
14.0
 40
14.0
 40
15.0
 40
15.0
 40
15.0
 40
16.0
 40
16.0
 40
16.0
 40
17.0
 40
17.0
 40
17.0
 40
18.0
 40
18.0
 40
18.0
 40
19.0
 40
19.0
 40
19.0
 40
20.0
 40
20.0
 40
20.0
 40
21.0
 40
21.0
 40
21.0
 40
22.0
 40
22.0
 40
22.0
 40
23.0
 40
23.0
 40
23.0
 40
24.0
 40
24.0
 40
24.0
 40
25.0
 40
25.0
 40
25.0
 40
26.0
 40
26.0
 40
26.0
 40
27.0
 40
27.0
 40
27.0
 40
28.0
 40
28.0
 40
28.0
 40
29.0
 40
29.0
 40
29.0
 40
30.0
 40
30.0
 40
30.0
 40
31.0
 40
31.0
 40
31.0
 40
32.0
 40
32.0
 40
32.0
 40
33.0
 40
33.0
 40
33.0
 40
34.0
 40
34.0
 40
34.0
 40
35.0
 40
35.0
 40
35.0
 40
36.0
 40
36.0
 40
36.0
 40
37.0
 40
37.0
 40
37.0
 40
38.0
 40
38.0
 40
38.0
 40
39.0
 40
39.0
 40
39.0
 40
40.0
 40
40.0
 40
40.0
 40
41.0
 40
41.0
 40
41.0
 40
42.0
 40
42.0
 40
42.0
 40
43.0
 40
43.0
 40
43.0
 40
44.0
 40
44.0
 40
44.0
 40
45.0
 40
45.0
 40
45.0
 40
46.0
 40
46.0
 40
46.0
 40
47.0
 40
47.0
 40
47.0
 40
48.0
 40
48.0
 40
48.0
 40
49.0
 40
49.0
 40
49.0
 40
50.0
 40
50.0
 40
50.0
 40
51.0
 40
51.0
 40
51.0
 40
52.0
 40
52.0
 40
52.0
 40
53.0
 40
53.0
 40
53.0
 40
54.0
 40
54.0
 40
54.0
 40
55.0
 40
55.0
 40
55.0
 40
56.0
 40
56.0
 40
56.0
 40
57.0
 40
57.0
 40
57.0
 40
58.0
 40
58.0
 40
58.0
 40
59.0
 40
59.0
 40
59.0
 40
60.0
 40
60.0
 40
60.0
 40
61.0
 40
61.0
 40
61.0
 40
62.0
 40
62.0
 40
62.0
 40
63.0
 40
63.0
 40
63.0
 40
64.0
 40
64.0
 40
64.0
 40
65.0
 40
65.0
 40
65.0
 40
66.0
 40
66.0
 40
66.0
 40
67.0
 40
67.0
 40
67.0
 40
68.0
 40
68.0
 40
68.0
 40
69.0
 40
69.0
 40
69.0
 40
70.0
 40
70.0
 40
70.0
 40
71.0
 40
71.0
 40
71.0
 40
72.0
 40
72.0
 40
72.0
 40
73.0
 40
73.0
 40
73.0
 40
74.0
 40
74.0
 40
74.0
 40
75.0
 40
75.0
 40
75.0
 40
76.0
 40
76.0
 40
76.0
 40
77.0
 40
77.0
 40
77.0
 40
78.0
 40
78.0
 40
78.0
 40
79.0
 40
79.0
 40
79.0
 40
80.0
 40
80.0
 40
80.0
 40
81.0
 40
81.0
 40
81.0
 40
82.0
 40
82.0
 40
82.0
 40
83.0
 40
83.0
 40
83.0
 40
84.0
 40
84.0
 40
84.0
 40
85.0
 40
85.0
 40
85.0
 40
86.0
 40
86.0
 40
86.0
 40
87.0
 40
87.0
 40
87.0
 40
88.0
 40
88.0
 40
88.0
 40
89.0
 40
89.0
 40
89.0
 40
90.0
 40
90.0
 40
90.0
 40
91.0
 40
91.0
 40
91.0
 40
92.0
 40
92.0
 40
92.0
 40
93.0
 40
93.0
 40
93.0
 40
94.0
 40
94.0
 40
94.0
 40
95.0
 40
95.0
 40
95.0
 40
96.0
 40
96.0
 40
96.0
 40
97.0
 40
97.0
 40
97.0
 40
98.0
 40
98.0
 40
98.0
 40
98.0
 10
0.1578695376999396
 20
-0.1471452928891807
 30
0.0
 10
0.1581327431686479
 20
-0.1414198849252241
 30
0.0
 10
0.158088645917346
 20
-0.1391049514867618
 30
0.0
 10
0.158088645917346
 20
-0.136128214768995
 30
0.0
 10
0.158088645917346
 20
-0.1294741807043799
 30
0.0
 10
0.1584166192239039
 20
-0.1264921040850882
 30
0.0
 10
0.1584166192239039
 20
-0.1198380700204731
 30
0.0
 10
0.1584166192239039
 20
-0.1177491349949331
 30
0.0
 10
0.1578378428005664
 20
-0.1147419091620083
 30
0.0
 10
0.1585402982334148
 20
-0.1127272159931523
 30
0.0
 10
0.1591325105380084
 20
-0.111035845248881
 30
0.0
 10
0.1613184250654351
 20
-0.1097315312377167
 30
0.0
 10
0.1621545502912924
 20
-0.1079996805947894
 30
0.0
 10
0.1626547784857484
 20
-0.1069640842087461
 30
0.0
 10
0.1627074884814452
 20
-0.104192330807578
 30
0.0
 10
0.1635119188079293
 20
-0.1036113150706978
 30
0.0
 10
0.1654776915886222
 20
-0.1021919347944176
 30
0.0
 10
0.1673156512424948
 20
-0.1017859300236418
 30
0.0
 10
0.1691260501143036
 20
-0.0999781149751514
 30
0.0
 10
0.1718039246015672
 20
-0.0972800866660037
 30
0.0
 10
0.1730489829312946
 20
-0.0927012072358968
 30
0.0
 10
0.171919335376459
 20
-0.0890461307695874
 30
0.0
 10
0.1712217030804717
 20
-0.0867880414441314
 30
0.0
 10
0.1728874078464462
 20
-0.0867062203723798
 30
0.0
 10
0.1740325583411927
 20
-0.0852615186275786
 30
0.0
 10
0.1755049931229455
 20
-0.0834035774067098
 30
0.0
 10
0.1769254069285531
 20
-0.0808085575205252
 30
0.0
 10
0.176842724582362
 20
-0.0783770075229558
 30
0.0
 10
0.1767038871427161
 20
-0.0742814753082909
 30
0.0
 10
0.1760865256244894
 20
-0.0713331606470273
 30
0.0
 10
0.173085500967529
 20
-0.0683491892239688
 30
0.0
 10
0.171412216986487
 20
-0.0666765942624784
 30
0.0
 10
0.1716643981423698
 20
-0.0654601302441421
 30
0.0
 10
0.1717508700960946
 20
-0.063163455823797
 30
0.0
 10
0.1718421651866806
 20
-0.0607358676886493
 30
0.0
 10
0.1709133668311341
 20
-0.0582491961269525
 30
0.0
 10
0.1692676436321559
 20
-0.0564477545093144
 30
0.0
 10
0.1679512717788387
 20
-0.055006670117159
 30
0.0
 10
0.16644817562704
 20
-0.0535915962130762
 30
0.0
 10
0.1646928983193585
 20
-0.0527034500110737
 30
0.0
 10
0.1628508045481764
 20
-0.0517715510675451
 30
0.0
 10
0.163105052762714
 20
-0.0488034270941732
 30
0.0
 10
0.1623653902740796
 20
-0.0470109427307057
 30
0.0
 10
0.160764108836179
 20
-0.0431307291259135
 30
0.0
 10
0.1571419330534581
 20
-0.0415475344512422
 30
0.0
 10
0.1534663582554888
 20
-0.0403098830816944
 30
0.0
 10
0.1513183398033996
 20
-0.0395857235329709
 30
0.0
 10
0.1517041907522914
 20
-0.0384183521576856
 30
0.0
 10
0.1504343277187067
 20
-0.0366739269079417
 30
0.0
 10
0.1493408536903297
 20
-0.0351715197756946
 30
0.0
 10
0.1483614123977411
 20
-0.0342497838705519
 30
0.0
 10
0.1469213615349132
 20
-0.0330822402403787
 30
0.0
 10
0.1454368689110075
 20
-0.0318790398484106
 30
0.0
 10
0.1438521239423451
 20
-0.0316158343797023
 30
0.0
 10
0.1420765205578916
 20
-0.0313359201868679
 30
0.0
 10
0.1401627687533439
 20
-0.03103499089771
 30
0.0
 10
0.1382331694991096
 20
-0.0316740565318119
 30
0.0
 10
0.1369391907812192
 20
-0.0302214310621673
 30
0.0
 10
0.1337593655506205
 20
-0.0266581664511075
 30
0.0
 10
0.1300800011451174
 20
-0.0245947251489764
 30
0.0
 10
0.1251796940941927
 20
-0.025269792054649
 30
0.0
 10
0.1230023923111609
 20
-0.0255720993829101
 30
0.0
 10
0.1223357658949954
 20
-0.0267684095793623
 30
0.0
 10
0.1203517340961852
 20
-0.0254554828238031
 30
0.0
 10
0.1184121440584528
 20
-0.024169427830756
 30
0.0
 10
0.1166775373373191
 20
-0.0236004699360286
 30
0.0
 10
0.1144712967331204
 20
-0.0231040313491064
 30
0.0
 10
0.1123770218060555
 20
-0.0226318807013777
 30
0.0
 10
0.109923767692611
 20
-0.022982936162914
 30
0.0
 10
0.10792423295389
 20
-0.0239096674598057
 30
0.0
 10
0.1060242615403742
 20
-0.0247902344467407
 30
0.0
 10
0.1051361153383716
 20
-0.0263711898078693
 30
0.0
 10
0.1030733630557921
 20
-0.0251610992203853
 30
0.0
 10
0.0998987054718304
 20
-0.0232986793724312
 30
0.0
 10
0.0952965716318573
 20
-0.0244841375109458
 30
0.0
 10
0.0923587645187554
 20
-0.0262103037425725
 30
0.0
 10
0.0909793473764676
 20
-0.027020762990133
 30
0.0
 10
0.0895851163138205
 20
-0.0295012333758654
 30
0.0
 10
0.088042746047581
 20
-0.0297885545288794
 30
0.0
 10
0.0869658084884422
 20
-0.0299894037281686
 30
0.0
 10
0.0861291664979212
 20
-0.0292564591801623
 30
0.0
 10
0.085071521486227
 20
-0.0292936662359482
 30
0.0
 10
0.0842545165529263
 20
-0.0293208825082361
 30
0.0
 10
0.083557056511827
 20
-0.0298255893297775
 30
0.0
 10
0.0827095624633684
 20
-0.0298452263869979
 30
0.0
 10
0.0808862444749672
 20
-0.0298874288345329
 30
0.0
 10
0.0790310593323048
 20
-0.0310952801084743
 30
0.0
 10
0.0776366560147698
 20
-0.0321791078631291
 30
0.0
 10
0.0769290329352845
 20
-0.0327291177201876
 30
0.0
 10
0.0745920508711712
 20
-0.0365581716232742
 30
0.0
 10
0.0735754025227967
 20
-0.0352345650646653
 30
0.0
 10
0.072373235660156
 20
-0.0336694571532233
 30
0.0
 10
0.0709555779327547
 20
-0.0323000307944335
 30
0.0
 10
0.0688551018297255
 20
-0.0318924757296666
 30
0.0
 10
0.0676488008497752
 20
-0.0316614819249953
 30
0.0
 10
0.0663472429168173
 20
-0.0316389165346807
 30
0.0
 10
0.0651418032113065
 20
-0.0318924757296666
 30
0.0
 10
0.0643182525922657
 20
-0.0320662809115558
 30
0.0
 10
0.0635517183411193
 20
-0.0328023260475443
 30
0.0
 10
0.0626652946879957
 20
-0.032696389291487
 30
0.0
 10
0.0614677787073282
 20
-0.0325556570480743
 30
0.0
 10
0.0594558416166786
 20
-0.0301935257703278
 30
0.0
 10
0.0581628964281156
 20
-0.0296783114006247
 30
0.0
 10
0.0554030286142125
 20
-0.0285786361962833
 30
0.0
 10
0.0531864527167399
 20
-0.0294829743577482
 30
0.0
 10
0.0507149395851782
 20
-0.0306599920067558
 30
0.0
 10
0.0489867062948967
 20
-0.0314830258611329
 30
0.0
 10
0.0487126487682509
 20
-0.0334672299148309
 30
0.0
 10
0.0465933968824408
 20
-0.0321930605090488
 30
0.0
 10
0.045053265929744
 20
-0.0312670182317087
 30
0.0
 10
0.0425142288821262
 20
-0.0316900762363864
 30
0.0
 10
0.040934307050325
 20
-0.0322940018733571
 30
0.0
 10
0.0390257228924142
 20
-0.0330236735784934
 30
0.0
 10
0.037207400295762
 20
-0.0344041242501086
 30
0.0
 10
0.0365459415262334
 20
-0.0364110659490092
 30
0.0
 10
0.0363676577172589
 20
-0.0369541856105519
 30
0.0
 10
0.036664969653771
 20
-0.037902104258655
 30
0.0
 10
0.0361749044977009
 20
-0.0383296408904181
 30
0.0
 10
0.0355716678802818
 20
-0.0388577743767136
 30
0.0
 10
0.0329781982880883
 20
-0.039041225832325
 30
0.0
 10
0.0321959888421431
 20
-0.0392487929722422
 30
0.0
 10
0.030205066847817
 20
-0.0397770987134257
 30
0.0
 10
0.0285297158081202
 20
-0.041804710998874
 30
0.0
 10
0.0282131113241636
 20
-0.0438040734827071
 30
0.0
 10
0.0279139045838846
 20
-0.0456928483285096
 30
0.0
 10
0.0299394498106782
 20
-0.0479800487300203
 30
0.0
 10
0.0280666946694502
 20
-0.0490997055013579
 30
0.0
 10
0.0259300450399623
 20
-0.0503687072605031
 30
0.0
 10
0.0248153836603738
 20
-0.0522583433807451
 30
0.0
 10
0.0250370757010987
 20
-0.0547724034696176
 30
0.0
 10
0.0252618683298057
 20
-0.0573198810067424
 30
0.0
 10
0.0287732842196081
 20
-0.0579055476255959
 30
0.0
 10
0.0289942872407814
 20
-0.0598081028624302
 30
0.0
 10
0.0292328602605202
 20
-0.0618178006395372
 30
0.0
 10
0.0272310862082566
 20
-0.0634605955054212
 30
0.0
 10
0.0285750188436374
 20
-0.0657229912030746
 30
0.0
 10
0.0295758197423253
 20
-0.0674076440067179
 30
0.0
 10
0.0283950124857839
 20
-0.068436694707021
 30
0.0
 10
0.0273850820780375
 20
-0.0698347153772019
 30
0.0
 10
0.0247444146465598
 20
-0.0734961652743636
 30
0.0
 10
0.0222217418132924
 20
-0.0776731740510042
 30
0.0
 10
0.0220543100622554
 20
-0.08233163523932
 30
0.0
 10
0.0219390715422516
 20
-0.0855372987031034
 30
0.0
 10
0.0215008551074389
 20
-0.0908284520946688
 30
0.0
 10
0.0244496865333662
 20
-0.0930767228915146
 30
0.0
 10
0.0285126625742183
 20
-0.0961740380308101
 30
0.0
 10
0.0326510862559698
 20
-0.0878730749830014
 30
0.0
 10
0.0336906445044347
 20
-0.085208291867218
 30
0.0
 10
0.0350437066488742
 20
-0.081740111954278
 30
0.0
 10
0.0355565094501468
 20
-0.0783410062513851
 30
0.0
 10
0.0355565094501468
 20
-0.0746612973361062
 30
0.0
 10
0.0355565094501468
 20
-0.0742709677601292
 30
0.0
 10
0.0353005386867302
 20
-0.0704539716991955
 30
0.0
 10
0.0364956430989671
 20
-0.0715741452351968
 30
0.0
 10
0.0374948937036639
 20
-0.0725106950606986
 30
0.0
 10
0.0392577502264129
 20
-0.0750116637780909
 30
0.0
 10
0.0397485044020346
 20
-0.0762668851462043
 30
0.0
 10
0.0406650726605403
 20
-0.078611618680273
 30
0.0
 10
0.0414147259326727
 20
-0.0810323166199048
 30
0.0
 10
0.0423026998797874
 20
-0.0833906582901175
 30
0.0
 10
0.0428329004247377
 20
-0.0848009090573391
 30
0.0
 10
0.0439814960172421
 20
-0.0869706316253033
 30
0.0
 10
0.0440428187573338
 20
-0.0884337646431097
 30
0.0
 10
0.0441051750267529
 20
-0.0899253197174192
 30
0.0
 10
0.045372626491907
 20
-0.0927070639020853
 30
0.0
 10
0.0460702587878943
 20
-0.0940294646764789
 30
0.0
 10
0.0472912014333159
 20
-0.0963438813502776
 30
0.0
 10
0.0477697255118968
 20
-0.0988634535955629
 30
0.0
 10
0.0502240131546687
 20
-0.1002859344598253
 30
0.0
 10
0.0525696079631769
 20
-0.1016500209170902
 30
0.0
 10
0.0543362540934597
 20
-0.1020727344119921
 30
0.0
 10
0.0570296315206341
 20
-0.1019521559904634
 30
0.0
 10
0.0581330963325092
 20
-0.1019027188376367
 30
0.0
 10
0.0595536823930047
 20
-0.1007070976607361
 30
0.0
 10
0.0605613734872085
 20
-0.100967547051238
 30
0.0
 10
0.0613683876370111
 20
-0.1011778702693616
 30
0.0
 10
0.0615790553649104
 20
-0.1034595585144596
 30
0.0
 10
0.06179954162142
 20
-0.1041242901268583
 30
0.0
 10
0.0625815788124773
 20
-0.1065034746385066
 30
0.0
 10
0.0637799560675842
 20
-0.1087920530791206
 30
0.0
 10
0.0658216932538402
 20
-0.11030410648509
 30
0.0
 10
0.0676184839895052
 20
-0.1116349477489906
 30
0.0
 10
0.0664418108502733
 20
-0.1186641529594477
 30
0.0
 10
0.0664418108502733
 20
-0.1207815100414909
 30
0.0
 10
0.0664418108502733
 20
-0.1278343141715901
 30
0.0
 10
0.0664213125186135
 20
-0.1348845344783708
 30
0.0
 10
0.0663536163476695
 20
-0.1419363050791426
 30
0.0
 10
0.0663327735062338
 20
-0.1441094727448648
 30
0.0
 10
0.0665198423144912
 20
-0.1467261967469246
 30
0.0
 10
0.0677550821156083
 20
-0.1487234921721029
 30
0.0
 10
0.0686055044971612
 20
-0.1500984306873054
 30
0.0
 10
0.0684830312718656
 20
-0.151104743742406
 30
0.0
 10
0.0702028240726401
 20
-0.151094752958908
 30
0.0
 10
0.0714420257361789
 20
-0.1510875182536162
 30
0.0
 10
0.0718785196221127
 20
-0.1485636396361335
 30
0.0
 10
0.0731263340300464
 20
-0.1485641564007972
 30
0.0
 10
0.0746125492028311
 20
-0.1486959313900392
 30
0.0
 10
0.0747718849741368
 20
-0.1516783525191067
 30
0.0
 10
0.0766904599155457
 20
-0.1504932388903678
 30
0.0
 10
0.0781425686205265
 20
-0.1495957909244188
 30
0.0
 10
0.0777806611010526
 20
-0.1476236447128736
 30
0.0
 10
0.0779639403017762
 20
-0.1459178045580189
 30
0.0
 10
0.0782097480268068
 20
-0.1436293983722929
 30
0.0
 10
0.0779198430504743
 20
-0.1403214155050981
 30
0.0
 10
0.0779198430504743
 20
-0.1378480075697694
 30
0.0
 10
0.0779198430504743
 20
-0.1345060904896587
 30
0.0
 10
0.0777875512965686
 20
-0.1311357513530448
 30
0.0
 10
0.0777875512965686
 20
-0.1277938342729341
 30
0.0
 10
0.0777875512965686
 20
-0.1239804555646463
 30
0.0
 10
0.0773171231977189
 20
-0.1184746725827598
 30
0.0
 10
0.0809809846633111
 20
-0.1213277302910158
 30
0.0
 10
0.0826087933539481
 20
-0.1224728807857622
 30
0.0
 10
0.0840493609814397
 20
-0.1235179511906399
 30
0.0
 10
0.0840493609814397
 20
-0.1248393184357061
 30
0.0
 10
0.0840493609814397
 20
-0.1309209495078359
 30
0.0
 10
0.08406245235292
 20
-0.1395319713538611
 30
0.0
 10
0.0838783118777569
 20
-0.1456111908575603
 30
0.0
 10
0.0837954572766779
 20
-0.1483472874969335
 30
0.0
 10
0.0851958895152894
 20
-0.1510981980566659
 30
0.0
 10
0.0862542235465352
 20
-0.1510964755077869
 30
0.0
 10
0.0882003592700078
 20
-0.1510933749198048
 30
0.0
 10
0.087703059408646
 20
-0.1486771556072583
 30
0.0
 10
0.0887236696194421
 20
-0.1486959313900392
 30
0.0
 10
0.0903483777220969
 20
-0.1487259037405335
 30
0.0
 10
0.0905177042769007
 20
-0.1505996924110889
 30
0.0
 10
0.092207352472293
 20
-0.1508125994525309
 30
0.0
 10
0.0941738142725375
 20
-0.151057545903122
 30
0.0
 10
0.0948151192201821
 20
-0.1475564653065934
 30
0.0
 10
0.0951615237997452
 20
-0.1459639688679756
 30
0.0
 10
0.0962396671430993
 20
-0.1409945876070038
 30
0.0
 10
0.0951579064470993
 20
-0.1349019322220485
 30
0.0
 10
0.0951901181111362
 20
-0.1298147286177544
 30
0.0
 10
0.0951994198750827
 20
-0.1283161110930411
 30
0.0
 10
0.0948645563730088
 20
-0.1276405274227048
 30
0.0
 10
0.0965500704510916
 20
-0.1278381037791239
 30
0.0
 10
0.0978521451487132
 20
-0.1279908938646895
 30
0.0
 10
0.0986913709625527
 20
-0.1278803062266589
 30
0.0
 10
0.0999260939990062
 20
-0.1275213270402793
 30
0.0
 10
0.1004981524817157
 20
-0.1273535507794666
 30
0.0
 10
0.1024100094824966
 20
-0.1265560106484984
 30
0.0
 10
0.1030208253149831
 20
-0.126592184174957
 30
0.0
 10
0.1039747728841627
 20
-0.1266469612293086
 30
0.0
 10
0.105804808813192
 20
-0.1285543396030041
 30
0.0
 10
0.1067356742273932
 20
-0.1290054751544092
 30
0.0
 10
0.1103016949166594
 20
-0.1307392206011034
 30
0.0
 10
0.1148819523858695
 20
-0.130297042303869
 30
0.0
 10
0.1182464348562948
 20
-0.1282634010973442
 30
0.0
 10
0.1206380217198718
 20
-0.1268159432743367
 30
0.0
 10
0.1206845305396043
 20
-0.1278062366248627
 30
0.0
 10
0.1232611191527839
 20
-0.1283252406020997
 30
0.0
 10
0.1252754678118641
 20
-0.128728661549557
 30
0.0
 10
0.1295997545176576
 20
-0.1272157468691481
 30
0.0
 10
0.1297137872534461
 20
-0.1298893149842143
 30
0.0
 10
0.1299136029234079
 20
-0.1345696525432931
 30
0.0
 10
0.1297602960731786
 20
-0.1393440412711643
 30
0.0
 10
0.1296376505929952
 20
-0.1440269626535616
 30
0.0
 10
0.1295876966755047
 20
-0.1459257282828622
 30
0.0
 10
0.1297086196068092
 20
-0.1501725002891016
 30
0.0
 10
0.1316743923875021
 20
-0.1503275296882099
 30
0.0
 10
0.1333500879369747
 20
-0.1504598214421156
 30
0.0
 10
0.1337028659473899
 20
-0.1482108616257182
 30
0.0
 10
0.1352462697429568
 20
-0.1482108616257182
 30
0.0
 10
0.1362615400522281
 20
-0.1482108616257182
 30
0.0
 10
0.1366174186506255
 20
-0.1508866690543271
 30
0.0
 10
0.1379920126560523
 20
-0.1507933069050863
 30
0.0
 10
0.1396559948731478
 20
-0.1506803076986251
 30
0.0
 10
0.1403112524667121
 20
-0.1470283318202979
 30
0.0
 10
0.1403388132487758
 20
-0.1456530487953196
 30
0.0
 10
0.1404270077513796
 20
-0.1412433236651286
 30
0.0
 10
0.140282658155321
 20
-0.1313688122163709
 30
0.0
 10
0.1404745501004394
 20
-0.129653153532906
 30
0.0
 10
0.1407201855705821
 20
-0.127457592731757
 30
0.0
 10
0.1402571644319121
 20
-0.1249902137175048
 30
0.0
 10
0.1431348545891375
 20
-0.1225531515635227
 30
0.0
 10
0.1455209292963017
 20
-0.1205326017284782
 30
0.0
 10
0.1474188336511628
 20
-0.1226826872392221
 30
0.0
 10
0.1475494028561896
 20
-0.1242660541687813
 30
0.0
 10
0.1474091873774405
 20
-0.1264120055622156
 30
0.0
 10
0.1476820391198711
 20
-0.1293277640496665
 30
0.0
 10
0.1476816946100953
 20
-0.1305278638536524
 30
0.0
 10
0.1476806610807679
 20
-0.1366503193342141
 30
0.0
 10
0.1475411346215705
 20
-0.139336117546321
 30
0.0
 10
0.1479903753692087
 20
-0.1454327347936979
 30
0.0
 10
0.1481309353577335
 20
-0.147342524735824
 30
0.0
 10
0.1482435900544188
 20
-0.150589357117815
 30
0.0
 10
0.1501511406830022
 20
-0.1506362104473233
 30
0.0
 10
0.1528093781130455
 20
-0.1507016673047245
 30
0.0
 10
0.1508370596466124
 20
-0.1484485733710176
 30
0.0
 10
0.1528410730124187
 20
-0.148299056128322
 30
0.0
 10
0.1542766452481614
 20
-0.148228087114508
 30
0.0
 10
0.1546163318870964
 20
-0.1508236237653564
 30
0.0
 10
0.1557842200270454
 20
-0.1506813412279525
 30
0.0
 10
0.1575922073304237
 20
-0.150460854971443
 30
0.0
 10
0.1578123490771574
 20
-0.1483927627873386
 30
0.0
 10
0.1578695376999396
 20
-0.1471452928891807
 30
0.0
  0
HATCH
  5
3D
330
1F
100
AcDbEntity
  8
Layer 1
 62
   143
420
  8892860
100
AcDbHatch
 10
0.0
 20
0.0
 30
0.0
210
0.0
220
0.0
230
1.0
  2
SOLID
 70
     1
 71
     0
 91
        1
 92
        1
 93
        1
 72
     4
 94
        3
 73
     0
 74
     1
 95
      299
 96
      295
 40
0.0
 40
0.0
 40
0.0
 40
0.0
 40
1.0
 40
1.0
 40
1.0
 40
2.0
 40
2.0
 40
2.0
 40
3.0
 40
3.0
 40
3.0
 40
4.0
 40
4.0
 40
4.0
 40
5.0
 40
5.0
 40
5.0
 40
6.0
 40
6.0
 40
6.0
 40
7.0
 40
7.0
 40
7.0
 40
8.0
 40
8.0
 40
8.0
 40
9.0
 40
9.0
 40
9.0
 40
10.0
 40
10.0
 40
10.0
 40
11.0
 40
11.0
 40
11.0
 40
12.0
 40
12.0
 40
12.0
 40
13.0
 40
13.0
 40
13.0
 40
14.0
 40
14.0
 40
14.0
 40
15.0
 40
15.0
 40
15.0
 40
16.0
 40
16.0
 40
16.0
 40
17.0
 40
17.0
 40
17.0
 40
18.0
 40
18.0
 40
18.0
 40
19.0
 40
19.0
 40
19.0
 40
20.0
 40
20.0
 40
20.0
 40
21.0
 40
21.0
 40
21.0
 40
22.0
 40
22.0
 40
22.0
 40
23.0
 40
23.0
 40
23.0
 40
24.0
 40
24.0
 40
24.0
 40
25.0
 40
25.0
 40
25.0
 40
26.0
 40
26.0
 40
26.0
 40
27.0
 40
27.0
 40
27.0
 40
28.0
 40
28.0
 40
28.0
 40
29.0
 40
29.0
 40
29.0
 40
30.0
 40
30.0
 40
30.0
 40
31.0
 40
31.0
 40
31.0
 40
32.0
 40
32.0
 40
32.0
 40
33.0
 40
33.0
 40
33.0
 40
34.0
 40
34.0
 40
34.0
 40
35.0
 40
35.0
 40
35.0
 40
36.0
 40
36.0
 40
36.0
 40
37.0
 40
37.0
 40
37.0
 40
38.0
 40
38.0
 40
38.0
 40
39.0
 40
39.0
 40
39.0
 40
40.0
 40
40.0
 40
40.0
 40
41.0
 40
41.0
 40
41.0
 40
42.0
 40
42.0
 40
42.0
 40
43.0
 40
43.0
 40
43.0
 40
44.0
 40
44.0
 40
44.0
 40
45.0
 40
45.0
 40
45.0
 40
46.0
 40
46.0
 40
46.0
 40
47.0
 40
47.0
 40
47.0
 40
48.0
 40
48.0
 40
48.0
 40
49.0
 40
49.0
 40
49.0
 40
50.0
 40
50.0
 40
50.0
 40
51.0
 40
51.0
 40
51.0
 40
52.0
 40
52.0
 40
52.0
 40
53.0
 40
53.0
 40
53.0
 40
54.0
 40
54.0
 40
54.0
 40
55.0
 40
55.0
 40
55.0
 40
56.0
 40
56.0
 40
56.0
 40
57.0
 40
57.0
 40
57.0
 40
58.0
 40
58.0
 40
58.0
 40
59.0
 40
59.0
 40
59.0
 40
60.0
 40
60.0
 40
60.0
 40
61.0
 40
61.0
 40
61.0
 40
62.0
 40
62.0
 40
62.0
 40
63.0
 40
63.0
 40
63.0
 40
64.0
 40
64.0
 40
64.0
 40
65.0
 40
65.0
 40
65.0
 40
66.0
 40
66.0
 40
66.0
 40
67.0
 40
67.0
 40
67.0
 40
68.0
 40
68.0
 40
68.0
 40
69.0
 40
69.0
 40
69.0
 40
70.0
 40
70.0
 40
70.0
 40
71.0
 40
71.0
 40
71.0
 40
72.0
 40
72.0
 40
72.0
 40
73.0
 40
73.0
 40
73.0
 40
74.0
 40
74.0
 40
74.0
 40
75.0
 40
75.0
 40
75.0
 40
76.0
 40
76.0
 40
76.0
 40
77.0
 40
77.0
 40
77.0
 40
78.0
 40
78.0
 40
78.0
 40
79.0
 40
79.0
 40
79.0
 40
80.0
 40
80.0
 40
80.0
 40
81.0
 40
81.0
 40
81.0
 40
82.0
 40
82.0
 40
82.0
 40
83.0
 40
83.0
 40
83.0
 40
84.0
 40
84.0
 40
84.0
 40
85.0
 40
85.0
 40
85.0
 40
86.0
 40
86.0
 40
86.0
 40
87.0
 40
87.0
 40
87.0
 40
88.0
 40
88.0
 40
88.0
 40
89.0
 40
89.0
 40
89.0
 40
90.0
 40
90.0
 40
90.0
 40
91.0
 40
91.0
 40
91.0
 40
92.0
 40
92.0
 40
92.0
 40
93.0
 40
93.0
 40
93.0
 40
94.0
 40
94.0
 40
94.0
 40
95.0
 40
95.0
 40
95.0
 40
96.0
 40
96.0
 40
96.0
 40
97.0
 40
97.0
 40
97.0
 40
98.0
 40
98.0
 40
98.0
 40
98.0
 10
0.1578695376999396
 20
-0.1471452928891807
 10
0.1581327431686479
 20
-0.1414198849252241
 10
0.158088645917346
 20
-0.1391049514867618
 10
0.158088645917346
 20
-0.136128214768995
 10
0.158088645917346
 20
-0.1294741807043799
 10
0.1584166192239039
 20
-0.1264921040850882
 10
0.1584166192239039
 20
-0.1198380700204731
 10
0.1584166192239039
 20
-0.1177491349949331
 10
0.1578378428005664
 20
-0.1147419091620083
 10
0.1585402982334148
 20
-0.1127272159931523
 10
0.1591325105380084
 20
-0.111035845248881
 10
0.1613184250654351
 20
-0.1097315312377167
 10
0.1621545502912924
 20
-0.1079996805947894
 10
0.1626547784857484
 20
-0.1069640842087461
 10
0.1627074884814452
 20
-0.104192330807578
 10
0.1635119188079293
 20
-0.1036113150706978
 10
0.1654776915886222
 20
-0.1021919347944176
 10
0.1673156512424948
 20
-0.1017859300236418
 10
0.1691260501143036
 20
-0.0999781149751514
 10
0.1718039246015672
 20
-0.0972800866660037
 10
0.1730489829312946
 20
-0.0927012072358968
 10
0.171919335376459
 20
-0.0890461307695874
 10
0.1712217030804717
 20
-0.0867880414441314
 10
0.1728874078464462
 20
-0.0867062203723798
 10
0.1740325583411927
 20
-0.0852615186275786
 10
0.1755049931229455
 20
-0.0834035774067098
 10
0.1769254069285531
 20
-0.0808085575205252
 10
0.176842724582362
 20
-0.0783770075229558
 10
0.1767038871427161
 20
-0.0742814753082909
 10
0.1760865256244894
 20
-0.0713331606470273
 10
0.173085500967529
 20
-0.0683491892239688
 10
0.171412216986487
 20
-0.0666765942624784
 10
0.1716643981423698
 20
-0.0654601302441421
 10
0.1717508700960946
 20
-0.063163455823797
 10
0.1718421651866806
 20
-0.0607358676886493
 10
0.1709133668311341
 20
-0.0582491961269525
 10
0.1692676436321559
 20
-0.0564477545093144
 10
0.1679512717788387
 20
-0.055006670117159
 10
0.16644817562704
 20
-0.0535915962130762
 10
0.1646928983193585
 20
-0.0527034500110737
 10
0.1628508045481764
 20
-0.0517715510675451
 10
0.163105052762714
 20
-0.0488034270941732
 10
0.1623653902740796
 20
-0.0470109427307057
 10
0.160764108836179
 20
-0.0431307291259135
 10
0.1571419330534581
 20
-0.0415475344512422
 10
0.1534663582554888
 20
-0.0403098830816944
 10
0.1513183398033996
 20
-0.0395857235329709
 10
0.1517041907522914
 20
-0.0384183521576856
 10
0.1504343277187067
 20
-0.0366739269079417
 10
0.1493408536903297
 20
-0.0351715197756946
 10
0.1483614123977411
 20
-0.0342497838705519
 10
0.1469213615349132
 20
-0.0330822402403787
 10
0.1454368689110075
 20
-0.0318790398484106
 10
0.1438521239423451
 20
-0.0316158343797023
 10
0.1420765205578916
 20
-0.0313359201868679
 10
0.1401627687533439
 20
-0.03103499089771
 10
0.1382331694991096
 20
-0.0316740565318119
 10
0.1369391907812192
 20
-0.0302214310621673
 10
0.1337593655506205
 20
-0.0266581664511075
 10
0.1300800011451174
 20
-0.0245947251489764
 10
0.1251796940941927
 20
-0.025269792054649
 10
0.1230023923111609
 20
-0.0255720993829101
 10
0.1223357658949954
 20
-0.0267684095793623
 10
0.1203517340961852
 20
-0.0254554828238031
 10
0.1184121440584528
 20
-0.024169427830756
 10
0.1166775373373191
 20
-0.0236004699360286
 10
0.1144712967331204
 20
-0.0231040313491064
 10
0.1123770218060555
 20
-0.0226318807013777
 10
0.109923767692611
 20
-0.022982936162914
 10
0.10792423295389
 20
-0.0239096674598057
 10
0.1060242615403742
 20
-0.0247902344467407
 10
0.1051361153383716
 20
-0.0263711898078693
 10
0.1030733630557921
 20
-0.0251610992203853
 10
0.0998987054718304
 20
-0.0232986793724312
 10
0.0952965716318573
 20
-0.0244841375109458
 10
0.0923587645187554
 20
-0.0262103037425725
 10
0.0909793473764676
 20
-0.027020762990133
 10
0.0895851163138205
 20
-0.0295012333758654
 10
0.088042746047581
 20
-0.0297885545288794
 10
0.0869658084884422
 20
-0.0299894037281686
 10
0.0861291664979212
 20
-0.0292564591801623
 10
0.085071521486227
 20
-0.0292936662359482
 10
0.0842545165529263
 20
-0.0293208825082361
 10
0.083557056511827
 20
-0.0298255893297775
 10
0.0827095624633684
 20
-0.0298452263869979
 10
0.0808862444749672
 20
-0.0298874288345329
 10
0.0790310593323048
 20
-0.0310952801084743
 10
0.0776366560147698
 20
-0.0321791078631291
 10
0.0769290329352845
 20
-0.0327291177201876
 10
0.0745920508711712
 20
-0.0365581716232742
 10
0.0735754025227967
 20
-0.0352345650646653
 10
0.072373235660156
 20
-0.0336694571532233
 10
0.0709555779327547
 20
-0.0323000307944335
 10
0.0688551018297255
 20
-0.0318924757296666
 10
0.0676488008497752
 20
-0.0316614819249953
 10
0.0663472429168173
 20
-0.0316389165346807
 10
0.0651418032113065
 20
-0.0318924757296666
 10
0.0643182525922657
 20
-0.0320662809115558
 10
0.0635517183411193
 20
-0.0328023260475443
 10
0.0626652946879957
 20
-0.032696389291487
 10
0.0614677787073282
 20
-0.0325556570480743
 10
0.0594558416166786
 20
-0.0301935257703278
 10
0.0581628964281156
 20
-0.0296783114006247
 10
0.0554030286142125
 20
-0.0285786361962833
 10
0.0531864527167399
 20
-0.0294829743577482
 10
0.0507149395851782
 20
-0.0306599920067558
 10
0.0489867062948967
 20
-0.0314830258611329
 10
0.0487126487682509
 20
-0.0334672299148309
 10
0.0465933968824408
 20
-0.0321930605090488
 10
0.045053265929744
 20
-0.0312670182317087
 10
0.0425142288821262
 20
-0.0316900762363864
 10
0.040934307050325
 20
-0.0322940018733571
 10
0.0390257228924142
 20
-0.0330236735784934
 10
0.037207400295762
 20
-0.0344041242501086
 10
0.0365459415262334
 20
-0.0364110659490092
 10
0.0363676577172589
 20
-0.0369541856105519
 10
0.036664969653771
 20
-0.037902104258655
 10
0.0361749044977009
 20
-0.0383296408904181
 10
0.0355716678802818
 20
-0.0388577743767136
 10
0.0329781982880883
 20
-0.039041225832325
 10
0.0321959888421431
 20
-0.0392487929722422
 10
0.030205066847817
 20
-0.0397770987134257
 10
0.0285297158081202
 20
-0.041804710998874
 10
0.0282131113241636
 20
-0.0438040734827071
 10
0.0279139045838846
 20
-0.0456928483285096
 10
0.0299394498106782
 20
-0.0479800487300203
 10
0.0280666946694502
 20
-0.0490997055013579
 10
0.0259300450399623
 20
-0.0503687072605031
 10
0.0248153836603738
 20
-0.0522583433807451
 10
0.0250370757010987
 20
-0.0547724034696176
 10
0.0252618683298057
 20
-0.0573198810067424
 10
0.0287732842196081
 20
-0.0579055476255959
 10
0.0289942872407814
 20
-0.0598081028624302
 10
0.0292328602605202
 20
-0.0618178006395372
 10
0.0272310862082566
 20
-0.0634605955054212
 10
0.0285750188436374
 20
-0.0657229912030746
 10
0.0295758197423253
 20
-0.0674076440067179
 10
0.0283950124857839
 20
-0.068436694707021
 10
0.0273850820780375
 20
-0.0698347153772019
 10
0.0247444146465598
 20
-0.0734961652743636
 10
0.0222217418132924
 20
-0.0776731740510042
 10
0.0220543100622554
 20
-0.08233163523932
 10
0.0219390715422516
 20
-0.0855372987031034
 10
0.0215008551074389
 20
-0.0908284520946688
 10
0.0244496865333662
 20
-0.0930767228915146
 10
0.0285126625742183
 20
-0.0961740380308101
 10
0.0326510862559698
 20
-0.0878730749830014
 10
0.0336906445044347
 20
-0.085208291867218
 10
0.0350437066488742
 20
-0.081740111954278
 10
0.0355565094501468
 20
-0.0783410062513851
 10
0.0355565094501468
 20
-0.0746612973361062
 10
0.0355565094501468
 20
-0.0742709677601292
 10
0.0353005386867302
 20
-0.0704539716991955
 10
0.0364956430989671
 20
-0.0715741452351968
 10
0.0374948937036639
 20
-0.0725106950606986
 10
0.0392577502264129
 20
-0.0750116637780909
 10
0.0397485044020346
 20
-0.0762668851462043
 10
0.0406650726605403
 20
-0.078611618680273
 10
0.0414147259326727
 20
-0.0810323166199048
 10
0.0423026998797874
 20
-0.0833906582901175
 10
0.0428329004247377
 20
-0.0848009090573391
 10
0.0439814960172421
 20
-0.0869706316253033
 10
0.0440428187573338
 20
-0.0884337646431097
 10
0.0441051750267529
 20
-0.0899253197174192
 10
0.045372626491907
 20
-0.0927070639020853
 10
0.0460702587878943
 20
-0.0940294646764789
 10
0.0472912014333159
 20
-0.0963438813502776
 10
0.0477697255118968
 20
-0.0988634535955629
 10
0.0502240131546687
 20
-0.1002859344598253
 10
0.0525696079631769
 20
-0.1016500209170902
 10
0.0543362540934597
 20
-0.1020727344119921
 10
0.0570296315206341
 20
-0.1019521559904634
 10
0.0581330963325092
 20
-0.1019027188376367
 10
0.0595536823930047
 20
-0.1007070976607361
 10
0.0605613734872085
 20
-0.100967547051238
 10
0.0613683876370111
 20
-0.1011778702693616
 10
0.0615790553649104
 20
-0.1034595585144596
 10
0.06179954162142
 20
-0.1041242901268583
 10
0.0625815788124773
 20
-0.1065034746385066
 10
0.0637799560675842
 20
-0.1087920530791206
 10
0.0658216932538402
 20
-0.11030410648509
 10
0.0676184839895052
 20
-0.1116349477489906
 10
0.0664418108502733
 20
-0.1186641529594477
 10
0.0664418108502733
 20
-0.1207815100414909
 10
0.0664418108502733
 20
-0.1278343141715901
 10
0.0664213125186135
 20
-0.1348845344783708
 10
0.0663536163476695
 20
-0.1419363050791426
 10
0.0663327735062338
 20
-0.1441094727448648
 10
0.0665198423144912
 20
-0.1467261967469246
 10
0.0677550821156083
 20
-0.1487234921721029
 10
0.0686055044971612
 20
-0.1500984306873054
 10
0.0684830312718656
 20
-0.151104743742406
 10
0.0702028240726401
 20
-0.151094752958908
 10
0.0714420257361789
 20
-0.1510875182536162
 10
0.0718785196221127
 20
-0.1485636396361335
 10
0.0731263340300464
 20
-0.1485641564007972
 10
0.0746125492028311
 20
-0.1486959313900392
 10
0.0747718849741368
 20
-0.1516783525191067
 10
0.0766904599155457
 20
-0.1504932388903678
 10
0.0781425686205265
 20
-0.1495957909244188
 10
0.0777806611010526
 20
-0.1476236447128736
 10
0.0779639403017762
 20
-0.1459178045580189
 10
0.0782097480268068
 20
-0.1436293983722929
 10
0.0779198430504743
 20
-0.1403214155050981
 10
0.0779198430504743
 20
-0.1378480075697694
 10
0.0779198430504743
 20
-0.1345060904896587
 10
0.0777875512965686
 20
-0.1311357513530448
 10
0.0777875512965686
 20
-0.1277938342729341
 10
0.0777875512965686
 20
-0.1239804555646463
 10
0.0773171231977189
 20
-0.1184746725827598
 10
0.0809809846633111
 20
-0.1213277302910158
 10
0.0826087933539481
 20
-0.1224728807857622
 10
0.0840493609814397
 20
-0.1235179511906399
 10
0.0840493609814397
 20
-0.1248393184357061
 10
0.0840493609814397
 20
-0.1309209495078359
 10
0.08406245235292
 20
-0.1395319713538611
 10
0.0838783118777569
 20
-0.1456111908575603
 10
0.0837954572766779
 20
-0.1483472874969335
 10
0.0851958895152894
 20
-0.1510981980566659
 10
0.0862542235465352
 20
-0.1510964755077869
 10
0.0882003592700078
 20
-0.1510933749198048
 10
0.087703059408646
 20
-0.1486771556072583
 10
0.0887236696194421
 20
-0.1486959313900392
 10
0.0903483777220969
 20
-0.1487259037405335
 10
0.0905177042769007
 20
-0.1505996924110889
 10
0.092207352472293
 20
-0.1508125994525309
 10
0.0941738142725375
 20
-0.151057545903122
 10
0.0948151192201821
 20
-0.1475564653065934
 10
0.0951615237997452
 20
-0.1459639688679756
 10
0.0962396671430993
 20
-0.1409945876070038
 10
0.0951579064470993
 20
-0.1349019322220485
 10
0.0951901181111362
 20
-0.1298147286177544
 10
0.0951994198750827
 20
-0.1283161110930411
 10
0.0948645563730088
 20
-0.1276405274227048
 10
0.0965500704510916
 20
-0.1278381037791239
 10
0.0978521451487132
 20
-0.1279908938646895
 10
0.0986913709625527
 20
-0.1278803062266589
 10
0.0999260939990062
 20
-0.1275213270402793
 10
0.1004981524817157
 20
-0.1273535507794666
 10
0.1024100094824966
 20
-0.1265560106484984
 10
0.1030208253149831
 20
-0.126592184174957
 10
0.1039747728841627
 20
-0.1266469612293086
 10
0.105804808813192
 20
-0.1285543396030041
 10
0.1067356742273932
 20
-0.1290054751544092
 10
0.1103016949166594
 20
-0.1307392206011034
 10
0.1148819523858695
 20
-0.130297042303869
 10
0.1182464348562948
 20
-0.1282634010973442
 10
0.1206380217198718
 20
-0.1268159432743367
 10
0.1206845305396043
 20
-0.1278062366248627
 10
0.1232611191527839
 20
-0.1283252406020997
 10
0.1252754678118641
 20
-0.128728661549557
 10
0.1295997545176576
 20
-0.1272157468691481
 10
0.1297137872534461
 20
-0.1298893149842143
 10
0.1299136029234079
 20
-0.1345696525432931
 10
0.1297602960731786
 20
-0.1393440412711643
 10
0.1296376505929952
 20
-0.1440269626535616
 10
0.1295876966755047
 20
-0.1459257282828622
 10
0.1297086196068092
 20
-0.1501725002891016
 10
0.1316743923875021
 20
-0.1503275296882099
 10
0.1333500879369747
 20
-0.1504598214421156
 10
0.1337028659473899
 20
-0.1482108616257182
 10
0.1352462697429568
 20
-0.1482108616257182
 10
0.1362615400522281
 20
-0.1482108616257182
 10
0.1366174186506255
 20
-0.1508866690543271
 10
0.1379920126560523
 20
-0.1507933069050863
 10
0.1396559948731478
 20
-0.1506803076986251
 10
0.1403112524667121
 20
-0.1470283318202979
 10
0.1403388132487758
 20
-0.1456530487953196
 10
0.1404270077513796
 20
-0.1412433236651286
 10
0.140282658155321
 20
-0.1313688122163709
 10
0.1404745501004394
 20
-0.129653153532906
 10
0.1407201855705821
 20
-0.127457592731757
 10
0.1402571644319121
 20
-0.1249902137175048
 10
0.1431348545891375
 20
-0.1225531515635227
 10
0.1455209292963017
 20
-0.1205326017284782
 10
0.1474188336511628
 20
-0.1226826872392221
 10
0.1475494028561896
 20
-0.1242660541687813
 10
0.1474091873774405
 20
-0.1264120055622156
 10
0.1476820391198711
 20
-0.1293277640496665
 10
0.1476816946100953
 20
-0.1305278638536524
 10
0.1476806610807679
 20
-0.1366503193342141
 10
0.1475411346215705
 20
-0.139336117546321
 10
0.1479903753692087
 20
-0.1454327347936979
 10
0.1481309353577335
 20
-0.147342524735824
 10
0.1482435900544188
 20
-0.150589357117815
 10
0.1501511406830022
 20
-0.1506362104473233
 10
0.1528093781130455
 20
-0.1507016673047245
 10
0.1508370596466124
 20
-0.1484485733710176
 10
0.1528410730124187
 20
-0.148299056128322
 10
0.1542766452481614
 20
-0.148228087114508
 10
0.1546163318870964
 20
-0.1508236237653564
 10
0.1557842200270454
 20
-0.1506813412279525
 10
0.1575922073304237
 20
-0.150460854971443
 10
0.1578123490771574
 20
-0.1483927627873386
 10
0.1578695376999396
 20
-0.1471452928891807
 97
        0
 75
     0
 76
     1
 98
        0
  0
ENDSEC
  0
SECTION
  2
OBJECTS
  0
DICTIONARY
  5
C
330
0
100
AcDbDictionary
281
     1
  3
ACAD_GROUP
350
D
  3
ACAD_LAYOUT
350
1A
  3
ACAD_MLINESTYLE
350
17
  3
ACAD_PLOTSETTINGS
350
19
  3
ACAD_PLOTSTYLENAME
350
E
  3
ACAD_TABLESTYLE
350
3E
  3
ACAD_VISUALSTYLE
350
2A
  0
DICTIONARY
  5
D
102
{ACAD_REACTORS
330
C
102
}
330
C
100
AcDbDictionary
281
     1
  0
DICTIONARY
  5
1A
102
{ACAD_REACTORS
330
C
102
}
330
C
100
AcDbDictionary
281
     1
  3
Layout1
350
1E
  3
Layout2
350
26
  3
Model
350
22
  0
DICTIONARY
  5
17
102
{ACAD_REACTORS
330
C
102
}
330
C
100
AcDbDictionary
281
     1
  3
Standard
350
18
  0
DICTIONARY
  5
19
102
{ACAD_REACTORS
330
C
102
}
330
C
100
AcDbDictionary
281
     1
  0
ACDBDICTIONARYWDFLT
  5
E
102
{ACAD_REACTORS
330
C
102
}
330
C
100
AcDbDictionary
281
     1
  3
Normal
350
F
100
AcDbDictionaryWithDefault
340
F
  0
DICTIONARY
  5
3E
102
{ACAD_REACTORS
330
C
102
}
330
C
100
AcDbDictionary
281
     1
  0
DICTIONARY
  5
2A
102
{ACAD_REACTORS
330
C
102
}
330
C
100
AcDbDictionary
281
     1
  3
2dWireframe
350
2F
  3
3D Hidden
350
31
  3
3dWireframe
350
30
  3
Basic
350
32
  3
Brighten
350
36
  3
ColorChange
350
3A
  3
Conceptual
350
34
  3
Dim
350
35
  3
Facepattern
350
39
  3
Flat
350
2B
  3
FlatWithEdges
350
2C
  3
Gouraud
350
2D
  3
GouraudWithEdges
350
2E
  3
Linepattern
350
38
  3
Realistic
350
33
  3
Thicken
350
37
  0
LAYOUT
  5
1E
102
{ACAD_REACTORS
330
1A
102
}
330
1A
100
AcDbPlotSettings
  1

  2
none_device
  4

  6

 40
0.0
 41
0.0
 42
0.0
 43
0.0
 44
0.0
 45
0.0
 46
0.0
 47
0.0
 48
0.0
 49
0.0
140
0.0
141
0.0
142
1.0
143
1.0
 70
   688
 72
     0
 73
     0
 74
     5
  7

 75
    16
 76
     0
 77
     2
 78
   300
147
1.0
148
0.0
149
0.0
100
AcDbLayout
  1
Layout1
 70
     1
 71
     1
 10
0.0
 20
0.0
 11
12.0
 21
9.0
 12
0.0
 22
0.0
 32
0.0
 14
1.000000000000000E+20
 24
1.000000000000000E+20
 34
1.000000000000000E+20
 15
-1.000000000000000E+20
 25
-1.000000000000000E+20
 35
-1.000000000000000E+20
146
0.0
 13
0.0
 23
0.0
 33
0.0
 16
1.0
 26
0.0
 36
0.0
 17
0.0
 27
1.0
 37
0.0
 76
     0
330
1B
  0
LAYOUT
  5
26
102
{ACAD_REACTORS
330
1A
102
}
330
1A
100
AcDbPlotSettings
  1

  2
none_device
  4

  6

 40
0.0
 41
0.0
 42
0.0
 43
0.0
 44
0.0
 45
0.0
 46
0.0
 47
0.0
 48
0.0
 49
0.0
140
0.0
141
0.0
142
1.0
143
1.0
 70
   688
 72
     0
 73
     0
 74
     5
  7

 75
    16
 76
     0
 77
     2
 78
   300
147
1.0
148
0.0
149
0.0
100
AcDbLayout
  1
Layout2
 70
     1
 71
     2
 10
0.0
 20
0.0
 11
0.0
 21
0.0
 12
0.0
 22
0.0
 32
0.0
 14
0.0
 24
0.0
 34
0.0
 15
0.0
 25
0.0
 35
0.0
146
0.0
 13
0.0
 23
0.0
 33
0.0
 16
1.0
 26
0.0
 36
0.0
 17
0.0
 27
1.0
 37
0.0
 76
     0
330
23
  0
LAYOUT
  5
22
102
{ACAD_REACTORS
330
1A
102
}
330
1A
100
AcDbPlotSettings
  1

  2
none_device
  4

  6

 40
0.0
 41
0.0
 42
0.0
 43
0.0
 44
0.0
 45
0.0
 46
0.0
 47
0.0
 48
0.0
 49
0.0
140
0.0
141
0.0
142
1.0
143
1.0
 70
  1712
 72
     0
 73
     0
 74
     0
  7

 75
     0
 76
     0
 77
     2
 78
   300
147
1.0
148
0.0
149
0.0
100
AcDbLayout
  1
Model
 70
     1
 71
     0
 10
0.0
 20
0.0
 11
12.0
 21
9.0
 12
0.0
 22
0.0
 32
0.0
 14
1.000000000000000E+20
 24
1.000000000000000E+20
 34
1.000000000000000E+20
 15
-1.000000000000000E+20
 25
-1.000000000000000E+20
 35
-1.000000000000000E+20
146
0.0
 13
0.0
 23
0.0
 33
0.0
 16
1.0
 26
0.0
 36
0.0
 17
0.0
 27
1.0
 37
0.0
 76
     0
330
1F
331
29
  0
MLINESTYLE
  5
18
102
{ACAD_REACTORS
330
17
102
}
330
17
100
AcDbMlineStyle
  2
Standard
 70
     0
  3

 62
   256
 51
90.0
 52
90.0
 71
     2
 49
0.5
 62
   256
  6
BYLAYER
 49
-0.5
 62
   256
  6
BYLAYER
  0
ACDBPLACEHOLDER
  5
F
102
{ACAD_REACTORS
330
E
102
}
330
E
  0
VISUALSTYLE
  5
2F
102
{ACAD_REACTORS
330
2A
102
}
330
2A
100
AcDbVisualStyle
  2
2dWireframe
 70
     4
 71
     0
 72
     2
 73
     0
 90
        0
 40
-0.6
 41
-30.0
 62
     5
 63
     7
421
 16777215
 74
     1
 91
        4
 64
     7
 65
   257
 75
     1
175
     1
 42
1.0
 92
        0
 66
   257
 43
1.0
 76
     1
 77
     6
 78
     2
 67
     7
 79
     5
170
     0
171
     0
290
     0
174
     0
 93
        1
 44
0.0
173
     0
291
     0
 45
0.0
1001
ACAD
1000
AcDbSavedByObjectVersion
1070
     0
  0
VISUALSTYLE
  5
31
102
{ACAD_REACTORS
330
2A
102
}
330
2A
100
AcDbVisualStyle
  2
3D Hidden
 70
     6
 71
     1
 72
     2
 73
     2
 90
        0
 40
-0.6
 41
-30.0
 62
     5
 63
     7
421
 16777215
 74
     2
 91
        2
 64
     7
 65
   257
 75
     2
175
     1
 42
40.0
 92
        0
 66
   257
 43
1.0
 76
     1
 77
     6
 78
     2
 67
     7
 79
     3
170
     0
171
     0
290
     0
174
     0
 93
        1
 44
0.0
173
     0
291
     0
 45
0.0
1001
ACAD
1000
AcDbSavedByObjectVersion
1070
     0
  0
VISUALSTYLE
  5
30
102
{ACAD_REACTORS
330
2A
102
}
330
2A
100
AcDbVisualStyle
  2
3dWireframe
 70
     5
 71
     0
 72
     2
 73
     0
 90
        0
 40
-0.6
 41
-30.0
 62
     5
 63
     7
421
 16777215
 74
     1
 91
        4
 64
     7
 65
   257
 75
     1
175
     1
 42
1.0
 92
        0
 66
   257
 43
1.0
 76
     1
 77
     6
 78
     2
 67
     7
 79
     5
170
     0
171
     0
290
     0
174
     0
 93
        1
 44
0.0
173
     0
291
     0
 45
0.0
1001
ACAD
1000
AcDbSavedByObjectVersion
1070
     0
  0
VISUALSTYLE
  5
32
102
{ACAD_REACTORS
330
2A
102
}
330
2A
100
AcDbVisualStyle
  2
Basic
 70
     7
 71
     1
 72
     0
 73
     1
 90
        0
 40
-0.6
 41
-30.0
 62
     5
 63
     7
421
 16777215
 74
     0
 91
        4
 64
     7
 65
   257
 75
     1
175
     1
 42
1.0
 92
        8
 66
     7
 43
1.0
 76
     1
 77
     6
 78
     2
 67
     7
 79
     5
170
     0
171
     0
290
     0
174
     0
 93
        1
 44
0.0
173
     0
291
     1
 45
0.0
1001
ACAD
1000
AcDbSavedByObjectVersion
1070
     0
  0
VISUALSTYLE
  5
36
102
{ACAD_REACTORS
330
2A
102
}
330
2A
100
AcDbVisualStyle
  2
Brighten
 70
    12
 71
     2
 72
     2
 73
     0
 90
        0
 40
-0.6
 41
-30.0
 62
     5
 63
     7
421
 16777215
 74
     1
 91
        4
 64
     7
 65
   257
 75
     1
175
     1
 42
1.0
 92
        8
 66
     7
 43
1.0
 76
     1
 77
     6
 78
     2
 67
     7
 79
     5
170
     0
171
     0
290
     0
174
     0
 93
        1
 44
50.0
173
     0
291
     1
 45
0.0
1001
ACAD
1000
AcDbSavedByObjectVersion
1070
     0
  0
VISUALSTYLE
  5
3A
102
{ACAD_REACTORS
330
2A
102
}
330
2A
100
AcDbVisualStyle
  2
ColorChange
 70
    16
 71
     2
 72
     2
 73
     3
 90
        0
 40
-0.6
 41
-30.0
 62
     5
 63
     8
421
  8421504
 74
     1
 91
        4
 64
     7
 65
   257
 75
     1
175
     1
 42
1.0
 92
        8
 66
     8
424
  8421504
 43
1.0
 76
     1
 77
     6
 78
     2
 67
     7
 79
     5
170
     0
171
     0
290
     0
174
     0
 93
        1
 44
0.0
173
     0
291
     1
 45
0.0
1001
ACAD
1000
AcDbSavedByObjectVersion
1070
     0
  0
VISUALSTYLE
  5
34
102
{ACAD_REACTORS
330
2A
102
}
330
2A
100
AcDbVisualStyle
  2
Conceptual
 70
     9
 71
     3
 72
     2
 73
     0
 90
        0
 40
-0.6
 41
-30.0
 62
     5
 63
     7
421
 16777215
 74
     2
 91
        2
 64
     7
 65
   257
 75
     1
175
     1
 42
40.0
 92
        8
 66
     7
 43
1.0
 76
     1
 77
     6
 78
     2
 67
     7
 79
     3
170
     0
171
     0
290
     0
174
     0
 93
        1
 44
0.0
173
     0
291
     0
 45
0.0
1001
ACAD
1000
AcDbSavedByObjectVersion
1070
     0
  0
VISUALSTYLE
  5
35
102
{ACAD_REACTORS
330
2A
102
}
330
2A
100
AcDbVisualStyle
  2
Dim
 70
    11
 71
     2
 72
     2
 73
     0
 90
        0
 40
-0.6
 41
-30.0
 62
     5
 63
     7
421
 16777215
 74
     1
 91
        4
 64
     7
 65
   257
 75
     1
175
     1
 42
1.0
 92
        8
 66
     7
 43
1.0
 76
     1
 77
     6
 78
     2
 67
     7
 79
     5
170
     0
171
     0
290
     0
174
     0
 93
        1
 44
-50.0
173
     0
291
     1
 45
0.0
1001
ACAD
1000
AcDbSavedByObjectVersion
1070
     0
  0
VISUALSTYLE
  5
39
102
{ACAD_REACTORS
330
2A
102
}
330
2A
100
AcDbVisualStyle
  2
Facepattern
 70
    15
 71
     2
 72
     2
 73
     0
 90
        0
 40
-0.6
 41
-30.0
 62
     5
 63
     7
421
 16777215
 74
     1
 91
        4
 64
     7
 65
   257
 75
     1
175
     1
 42
1.0
 92
        8
 66
     7
 43
1.0
 76
     1
 77
     6
 78
     2
 67
     7
 79
     5
170
     0
171
     0
290
     0
174
     0
 93
        1
 44
0.0
173
     0
291
     1
 45
0.0
1001
ACAD
1000
AcDbSavedByObjectVersion
1070
     0
  0
VISUALSTYLE
  5
2B
102
{ACAD_REACTORS
330
2A
102
}
330
2A
100
AcDbVisualStyle
  2
Flat
 70
     0
 71
     2
 72
     1
 73
     1
 90
        2
 40
-0.6
 41
30.0
 62
     5
 63
     7
421
 16777215
 74
     0
 91
        4
 64
     7
 65
   257
 75
     1
175
     1
 42
1.0
 92
        8
 66
     7
 43
1.0
 76
     1
 77
     6
 78
     2
 67
     7
 79
     5
170
     0
171
     0
290
     0
174
     0
 93
       13
 44
0.0
173
     0
291
     1
 45
0.0
1001
ACAD
1000
AcDbSavedByObjectVersion
1070
     0
  0
VISUALSTYLE
  5
2C
102
{ACAD_REACTORS
330
2A
102
}
330
2A
100
AcDbVisualStyle
  2
FlatWithEdges
 70
     1
 71
     2
 72
     1
 73
     1
 90
        2
 40
-0.6
 41
30.0
 62
     5
 63
     7
421
 16777215
 74
     1
 91
        4
 64
     7
 65
   257
 75
     1
175
     1
 42
1.0
 92
        0
 66
   257
 43
1.0
 76
     1
 77
     6
 78
     2
 67
     7
 79
     5
170
     0
171
     0
290
     0
174
     0
 93
       13
 44
0.0
173
     0
291
     1
 45
0.0
1001
ACAD
1000
AcDbSavedByObjectVersion
1070
     0
  0
VISUALSTYLE
  5
2D
102
{ACAD_REACTORS
330
2A
102
}
330
2A
100
AcDbVisualStyle
  2
Gouraud
 70
     2
 71
     2
 72
     2
 73
     1
 90
        2
 40
-0.6
 41
30.0
 62
     5
 63
     7
421
 16777215
 74
     0
 91
        4
 64
     7
 65
   257
 75
     1
175
     1
 42
1.0
 92
        0
 66
     7
 43
1.0
 76
     1
 77
     6
 78
     2
 67
     7
 79
     5
170
     0
171
     0
290
     0
174
     0
 93
       13
 44
0.0
173
     0
291
     1
 45
0.0
1001
ACAD
1000
AcDbSavedByObjectVersion
1070
     0
  0
VISUALSTYLE
  5
2E
102
{ACAD_REACTORS
330
2A
102
}
330
2A
100
AcDbVisualStyle
  2
GouraudWithEdges
 70
     3
 71
     2
 72
     2
 73
     1
 90
        2
 40
-0.6
 41
30.0
 62
     5
 63
     7
421
 16777215
 74
     1
 91
        4
 64
     7
 65
   257
 75
     1
175
     1
 42
1.0
 92
        0
 66
   257
 43
1.0
 76
     1
 77
     6
 78
     2
 67
     7
 79
     5
170
     0
171
     0
290
     0
174
     0
 93
       13
 44
0.0
173
     0
291
     1
 45
0.0
1001
ACAD
1000
AcDbSavedByObjectVersion
1070
     0
  0
VISUALSTYLE
  5
38
102
{ACAD_REACTORS
330
2A
102
}
330
2A
100
AcDbVisualStyle
  2
Linepattern
 70
    14
 71
     2
 72
     2
 73
     0
 90
        0
 40
-0.6
 41
-30.0
 62
     5
 63
     7
421
 16777215
 74
     1
 91
        4
 64
     7
 65
   257
 75
     7
175
     7
 42
1.0
 92
        8
 66
     7
 43
1.0
 76
     1
 77
     6
 78
     2
 67
     7
 79
     5
170
     0
171
     0
290
     0
174
     0
 93
        1
 44
0.0
173
     0
291
     1
 45
0.0
1001
ACAD
1000
AcDbSavedByObjectVersion
1070
     0
  0
VISUALSTYLE
  5
33
102
{ACAD_REACTORS
330
2A
102
}
330
2A
100
AcDbVisualStyle
  2
Realistic
 70
     8
 71
     2
 72
     2
 73
     0
 90
        0
 40
-0.6
 41
-30.0
 62
     5
 63
     7
421
 16777215
 74
     1
 91
        0
 64
     7
 65
   257
 75
     1
175
     1
 42
1.0
 92
        8
 66
     8
424
  7895160
 43
1.0
 76
     1
 77
     6
 78
     2
 67
     7
 79
     5
170
     0
171
     0
290
     0
174
     0
 93
       13
 44
0.0
173
     0
291
     0
 45
0.0
1001
ACAD
1000
AcDbSavedByObjectVersion
1070
     0
  0
VISUALSTYLE
  5
37
102
{ACAD_REACTORS
330
2A
102
}
330
2A
100
AcDbVisualStyle
  2
Thicken
 70
    13
 71
     2
 72
     2
 73
     0
 90
        0
 40
-0.6
 41
-30.0
 62
     5
 63
     7
421
 16777215
 74
     1
 91
        4
 64
     7
 65
   257
 75
     1
175
     1
 42
1.0
 92
       12
 66
     7
 43
1.0
 76
     1
 77
     6
 78
     2
 67
     7
 79
     5
170
     0
171
     0
290
     0
174
     0
 93
        1
 44
0.0
173
     0
291
     1
 45
0.0
1001
ACAD
1000
AcDbSavedByObjectVersion
1070
     0
  0
ENDSEC
  0
EOF
